<svg width="447" height="44" viewBox="0 0 447 44" xmlns="http://www.w3.org/2000/svg"><title>payment-methods</title><g fill="none" fill-rule="evenodd"><path d="M276 17.7l-3.7 10-.4-2c-.9-2.5-2.9-5.1-5.2-6.2l3.4 12.8h4l6-14.6H276zm5.5 0l-2.3 14.6h3.8l2.3-14.6h-3.8zm11.5 5.9c-1.3-.7-2.1-1.1-2.1-1.8 0-.6.7-1.3 2.2-1.3 1.2 0 2.1.3 2.8.6l.3.2.5-3.2c-.7-.3-1.9-.6-3.4-.6-3.7 0-6.4 2-6.4 4.8 0 2.1 1.9 3.3 3.3 4 1.5.7 2 1.2 2 1.8 0 1-1.2 1.4-2.3 1.4-1.5 0-2.3-.2-3.6-.8l-.5-.2-.5 3.3c.9.4 2.5.8 4.2.8 4 0 6.6-2 6.6-5 .1-1.7-1-3-3.1-4zm13.4-5.9h-2.9c-.9 0-1.6.3-2 1.2l-5.6 13.4h4s.7-1.8.8-2.2h4.8c.1.5.5 2.2.5 2.2h3.5l-3.1-14.6zm-4.7 9.4c.3-.8 1.5-4.1 1.5-4.1s.3-.8.5-1.4l.3 1.3s.7 3.5.9 4.2h-3.2z" fill="#B7B5BA"/><path d="M268.9 17.7h-6.1v.3c4.7 1.2 7.9 4.2 9.2 7.7l-1.3-6.7c-.3-1-1-1.3-1.8-1.3z" fill="#B7B5BA"/><path d="M444.7 26.3c0-.3.3-.6.6-.6s.6.3.6.6-.3.6-.6.6-.6-.3-.6-.6zm.6.4c.2 0 .4-.2.4-.4s-.2-.4-.4-.4-.4.2-.4.4.1.4.4.4zm-.1-.2h-.1V26h.3l.1.1c0 .1 0 .1-.1.1l.1.2h-.1l-.1-.2h-.1v.3zm0-.3l.1-.1V26h-.2v.2h.1z" fill="#FFF"/><path d="M42.1 20.7h-2.8c-.5 0-1.1.4-1.5.9 0 0-3.3 5.7-3.6 6.2-.2.3-.4.1-.4 0s-1-6.2-1-6.2c-.1-.5-.6-.9-1.3-.9h-2.1c-.5 0-.8.4-.7.9 0 0 1.6 9 1.9 11.1.2 1.2 0 1.4 0 1.4l-2 3.6c-.3.4-.1.8.4.8h2.4c.5 0 1.2-.4 1.4-.9L42 22s.9-1.3.1-1.3zm-26.9-1.5c-.3-.6-.7-1-1.3-1.4-.6-.4-1.2-.6-2-.7-.8-.1-1.7-.2-2.7-.2H4.4c-.5 0-1 .4-1.1.9L0 31.9c-.1.5.2.9.7.9H3c.5 0 1-.4 1.1-.9l.8-3.4c.1-.5.6-.9 1.1-.9h.7c2.8 0 5-.6 6.6-1.7 1.6-1.2 2.4-2.7 2.4-4.6 0-.8-.2-1.5-.5-2.1zm-5 4.7c-.7.5-1.7.8-2.9.8h-.6c-.5 0-.8-.4-.7-.9l.7-3c.1-.5.6-.9 1.1-.9h.8c.9 0 1.6.2 2 .5.4.3.7.8.7 1.4 0 .8-.4 1.5-1.1 2.1zm16.2-2.6c-.9-.5-2.3-.7-4.1-.7-.9 0-1.9.1-2.8.2-.7.1-.8.1-1.2.2-.9.2-1 1.1-1 1.1l-.3 1.2c-.2.7.3.7.5.7.4-.1.6-.2 1.4-.4.7-.2 1.5-.3 2.2-.3.9 0 1.6.1 2.1.3.5.2.7.6.7 1v.3c0 .1-.1.2-.3.2-1.3.1-2.3.2-3.4.4s-2.1.4-2.9.8c-.9.4-1.5.9-2 1.6-.4.7-.7 1.5-.7 2.4 0 .9.3 1.6.9 2.2.6.6 1.4.8 2.4.8.6 0 1.1 0 1.5-.1.3-.1.7-.2 1.1-.4.3-.1.6-.3 1-.5l.9-.6-.1.4c-.1.4.2.8.6.9H25c.5-.1.9-.4 1-.9l1.7-7.3c0-.2.1-.4.1-.6v-.6c-.1-1.1-.6-1.9-1.4-2.3zm-3.3 6.2c0 .2-.3 1.4-.5 2 0 .2-.3.4-.4.5-.3.2-.6.3-.9.5-.4.2-.8.3-1.2.3-.6 0-1-.1-1.3-.3-.3-.2-.5-.5-.5-.9 0-.5.1-.8.3-1.1.2-.3.6-.5 1-.7.4-.1.9-.3 1.5-.3.5-.1 1.6-.2 1.7-.2.3-.1.4-.2.3.2zm45.2-6.2c-.9-.5-2.3-.7-4.1-.7-.9 0-1.9.1-2.8.2-.7.1-.8.1-1.2.2-.9.2-1 1.1-1 1.1l-.3 1.2c-.2.7.3.7.5.7.4-.1.6-.2 1.4-.4.7-.2 1.5-.3 2.2-.3.9 0 1.6.1 2.1.3.5.2.7.6.7 1v.3c0 .1-.1.2-.3.2-1.3.1-2.3.2-3.4.4s-2.1.4-2.9.8c-.9.4-1.5.9-2 1.6-.4.7-.7 1.5-.7 2.4 0 .9.3 1.6.9 2.2.6.6 1.4.8 2.4.8.6 0 1.1 0 1.5-.1.3-.1.7-.2 1.1-.4.3-.1.6-.3 1-.5l.9-.6-.3.3c-.1.4.2.8.6.9h2.1c.5-.1.9-.4 1-.9l1.7-7.3c0-.2.1-.4.1-.6v-.6c.2-1-.3-1.7-1.2-2.2zm-3.2 6.2c0 .2-.3 1.4-.5 2 0 .2-.3.4-.4.5-.3.2-.6.3-.9.5-.4.2-.8.3-1.2.3-.6 0-1-.1-1.3-.3-.3-.2-.5-.5-.5-.9 0-.5.1-.8.3-1.1.2-.3.6-.5 1-.7.4-.1.9-.3 1.5-.3.5-.1 1.6-.2 1.7-.2.3-.1.3-.1.3.2zm-7.9-8.2c-.3-.6-.7-1-1.3-1.4-.6-.4-1.2-.6-2-.7-.8-.1-1.7-.2-2.7-.2h-4.8c-.5 0-1 .4-1.1.9L42 32c-.1.5.2.9.7.9H45c.5 0 1-.4 1.1-.9l.8-3.4c.1-.5.6-.9 1.1-.9h.7c2.8 0 5-.6 6.6-1.7 1.6-1.2 2.4-2.7 2.4-4.6-.1-.9-.2-1.6-.5-2.1zm-5 4.6c-.7.5-1.7.8-2.9.8h-.6c-.5 0-.8-.4-.7-.9l.7-3c.1-.5.6-.9 1.1-.9h.8c.9 0 1.5.2 2 .4.4.3.7.8.7 1.4-.1 1-.4 1.7-1.1 2.2zm24.1-6.8h-2.1c-.5 0-1 .4-1.1.8v.1s-.1.2-.1.7l-2.8 12.8c-.1.3-.1.5-.1.6-.1.5.2.8.6.9h2.1c.5 0 .9-.4 1.1-.8v-.1l3.1-14c.1-.6-.2-1-.7-1zm3.1 0H79v.6h-.3v.3h.3v1.2c0 .3.1.5.2.6.1.1.3.2.5.2h.4v-.3h-.5c-.1 0-.1-.1-.1-.1 0-.1-.1-.1-.1-.2v-1.3h.8v-.3h-.8v-.7zm4.4.8c-.1-.1-.3-.2-.5-.2-.1 0-.3 0-.4.1-.1.1-.3.1-.4.3-.1-.1-.1-.2-.2-.3-.1-.1-.2-.1-.4-.1-.1 0-.3 0-.4.1-.1.1-.2.1-.4.2v-.2h-.4V20h.4v-1.7c.1-.1.2-.1.3-.2.1-.1.2-.1.3-.1h.2c.1 0 .1.1.1.1 0 .1 0 .1.1.2v1.6h.4v-1.6c.1-.1.2-.1.3-.2.1-.1.2-.1.3-.1h.2c.1 0 .1.1.1.1 0 .1 0 .1.1.2v1.6h.5v-1.4c0-.3-.1-.5-.2-.6zM209.9 16c-1.3.6-3 2.9-3 2.9h-4.1c-.5 0-.9.1-1 .6-.1.5.3.7.7.8 1.2.4 2.5.7 2.5 2.2 0 1.8-.8 3.2-2.3 4.1-1.1.7-2.4.8-3.6.8h-6.2c-.8 0-.9-.5-.9-.5l1.1-2.6h7c.4 0 1.1-.1 1.1-.7s-.5-.7-.9-.8c-1.2-.4-2.6-.7-2.5-2.4.1-1.9 1.5-4.6 4.6-4.6l7.5.2zm18.6 0c-2 .9-3 2.9-3 2.9h-3.8l-.8 1.6h3.1c-.5.4-1 2.5-1 2.5h-3l-1.5 4.5h-3.6s2.3-6.4 3.4-9.2c.5-1.2 1.8-2.1 3.1-2.2l7.1-.1zm16.5 0h10.3c.6 0 .9.2.7.9-.6 1.9-.6 1.9-2.6 1.9-2.5 0-1.9-.4-2.8 2-.7 1.9-1.4 3.7-2.1 5.6-.3.9-2.5 1.5-3.2.9-.4-.3-.1-.6 0-.9.7-2.1 1.5-4.2 2.3-6.3.4-.9.5-1.5-.8-1.3-.4.1-.7-.1-.7-.6-.2-.8-.5-1.4-1.1-2.2zm-26 17.7c.6-1 1.1-1.9 1.7-2.9.2-.2.3-.5.6-.7.2-.2.5-.2.7 0 .2.2 0 .4-.1.6-.9 1.5-1.9 3-2.8 4.5-.3.5-.9.6-1.4.5-.6-.2-.3-.7-.3-1.1 0-.7.1-1.3 0-2.1l-1.5 2.4c-.3.6-.9.9-1.5.7-.7-.2-.4-.8-.3-1.2.1-1.2.3-2.3.4-3.5 0-.5.1-1 .8-.9.8.1.5.6.4 1-.1.9-.2 1.8-.4 2.9.9-1 1.3-2 1.9-2.9.2-.3.3-.6.6-.8.3-.3.6-.3 1-.2.4.1.3.5.3.8-.1.9-.2 1.9-.3 2.8 0 .1.1.1.2.1zm25-.3c.3-.9.7-1.7 1-2.6.2-.5.4-.8.9-.6.6.2.2.6.1.9-.4 1.3-.9 2.5-1.4 3.8-.2.6-.4.9-1.1.9-.7 0-.7-.5-.8-1-.1-.8-.3-1.6-.5-2.6-.7.8-.8 1.7-1.1 2.4-.2.3-.3.7-.5 1-.1.2-.5.3-.7.1-.3-.1-.2-.4-.1-.6.5-1.5 1.1-3 1.6-4.5.2-.6.7-.6 1.2-.6s.7.4.7.8c.1.8.3 1.6.4 2.4.1.1.2.1.3.2zm6.3-.9c1.2 0 1.2.1.8 1.2-.6 1.9-1.8 2.5-3.5 2.1-.8-.2-1.2-.7-1.3-1.5-.1-2.4 2.6-4.7 4.9-4.2.4.1 1.1.1.9.9-.2.8-.7.3-1.1.2-1.6-.5-3.5.9-3.4 2.6 0 .7.4 1 1.1 1.1.6 0 1-.3 1.1-.9.1-.2.1-.4-.2-.5-.2-.1-.7.1-.6-.4.1-.5.5-.5.9-.5.1-.1.2-.1.4-.1zm-14.4 3.3c-1.7 0-2.2-.7-1.8-2 .3-1 .7-2 1.1-3 .2-.5.5-.9 1.1-.7.6.2.1.7 0 1-.2.8-.6 1.6-.8 2.3-.1.4-.4.9.2 1.2.5.2 1 .1 1.4-.2.5-.4.7-1 .9-1.5.3-.8.6-1.6.9-2.3.2-.5.6-.6 1-.5.5.2.1.6 0 .8-.3 1-.7 2-1.1 3-.7 1.3-1.8 1.9-2.9 1.9zm-41.9 0c-1.8 0-2.3-.7-1.9-2.1.3-1 .7-2.1 1.1-3.1.2-.5.5-.7.9-.6.6.2.2.6.1.9-.3.8-.6 1.6-.8 2.3-.2.5-.4 1.1.3 1.4.6.2 1.3 0 1.6-.6.4-.8.7-1.6 1-2.4.1-.3.3-.6.3-1 .2-.6.5-.9 1.1-.7.5.2.1.7 0 1-.3.9-.6 1.9-1 2.8-.5 1.4-1.5 2.1-2.7 2.1zm10.7-.1h-.6c-.9.1-1.2-.2-.8-1.1.5-1.1.9-2.2 1.2-3.4.3-.9.7-1.3 1.7-1.2.4.1.9 0 1.4 0 .2 0 .6 0 .6.3s-.2.6-.5.6h-1.2c-.6 0-.8.4-.8.9s.5.3.8.4c.3.1.8-.1.7.4-.1.4-.4.5-.8.6-.5 0-1.1-.2-1.4.6-.2.6-.1.9.6.9.4 0 1.1-.3 1 .4 0 .6-.7.5-1.1.5-.3.1-.6.1-.8.1zm18.4 0h-.7c-.8.1-1-.3-.7-1 .5-1.2.9-2.4 1.3-3.6.3-.8.7-1.1 1.6-1.1h1.2c.3 0 .8-.2.8.4 0 .4-.4.6-.8.6h-.9c-.6-.1-.8.3-.9.8-.1.7.5.4.8.5.3.1.7-.1.7.4 0 .4-.3.6-.7.6h-.8c-.8 0-.8.6-.9 1.1-.1.6.5.3.8.4.3.1.9-.2.9.3 0 .7-.6.6-1 .6h-.7zm7 .1c-.4 0-.8-.1-1.1-.2-.3-.2-.3-.5-.2-.8.1-.3.3-.4.6-.2s.7.3 1.1.2c.4-.1.8-.2.9-.7.1-.4-.2-.5-.5-.7-.6-.3-1.2-.7-1-1.6.1-.8.7-1.3 1.4-1.7.6-.3 1.2-.3 1.8-.1.4.1.6.3.5.7-.1.4-.3.5-.7.3-.3-.2-.7-.3-1.1-.1-.5.3-.7.7-.2 1 .8.5 1.6 1 1.1 2.1-.3 1.2-1.5 1.8-2.6 1.8zm-3.5 0c-.4 0-.5-.3-.3-.7.5-1.5 1.1-2.9 1.6-4.4.2-.5.5-.6 1-.5.5.2.2.5.1.8-.5 1.4-1 2.7-1.5 4.1-.1.3-.3.7-.9.7zm-31.5-6.2c-.2 0-.5 0-.5-.3 0-.4.2-.7.7-.7.2 0 .5 0 .5.3 0 .4-.2.7-.7.7zm2.1-1c.3 0 .5 0 .5.4 0 .5-.3.7-.7.7-.3 0-.4-.2-.4-.4 0-.5.2-.7.6-.7z" fill="#B7B5BA"/><path d="M242.7 16.1c-1.3-.1-2.6-.1-3.9-.1-.7 0-1.1.2-1.3.9-1 2.8-2 5.5-3 8.3-.8 2.2-.8 2.2 1.6 2.2.8 0 1.3-.2 1.6-1.1.2-.8.6-1.6.9-2.4.5.3.4.7.5 1 .7 2.5.7 2.5 3.3 2.5.9 0 1-.4.8-1.1-.3-1-.6-2-1-3-.2-.6-.2-.9.4-1.1 1.1-.5 1.9-1.3 2.4-2.5.6-2-.2-3.4-2.3-3.6zm-1 3.7c-.2.4-.4.8-.8 1-.4.3-1 .5-1.4.2-.5-.3 0-.8.2-1.2.2-.6.2-1.5 1.2-1.4.8.1 1.1.5.8 1.4zM213 15.9c-.2 0-.6 0-1.1.1-3.5.8-6.6 5.5-6.1 9 .2 1.2 1 2.1 2.4 2.4 2.2.4 4.1-.2 5.6-1.9 1.5-1.6 2.4-3.6 2.8-5.7.4-2.4-.9-3.9-3.6-3.9zm.2 4.4c-.3 1.2-.7 2.3-1.3 3.4-.3.5-.6.9-1.1 1.1-1 .4-1.6 0-1.6-1.3.3-1.4.8-3 1.9-4.2.5-.6 1.2-.9 1.9-.6.6.4.3 1.1.2 1.6zm18.6-4.4c-.7 0-1.4.1-2.2.5-2.7 1.2-5.3 5.1-5.2 8.1.1 1.7 1 2.8 2.7 3.1 1.9.3 3.6-.2 5-1.6 1.8-1.7 2.8-3.8 3.1-6.2.4-2.6-.8-3.9-3.4-3.9zm-1.7 8.3c-.5.6-1.1 1-1.9.6-.7-.4-.5-1-.4-1.6.3-1.3.8-2.6 1.6-3.7.4-.5.8-.9 1.5-.9s1.1.3 1 1.1c-.3 1.5-.7 3.1-1.8 4.5zm-27.2 6.5c-.5-.8-1.4-.6-2.1-.6-.6 0-1.1 0-1.3.7-.4 1.2-.8 2.3-1.3 3.5-.5 1.5-.5 1.5 1.2 1.5h.7c1.7-.2 2.4-1.1 2.1-2.8 0-.3.1-.4.3-.5.4-.7.7-1.2.4-1.8zm-1.8 3.2c-.1.8-.7.9-1.4.9-.3 0-.5-.2-.4-.5.2-.5.3-1.2.9-1 .6 0 .9.1.9.6zm-.4-1.5c-.3.1-.6-.1-.5-.4.1-.4.1-1 .7-1 .3 0 .7 0 .8.5-.1.5-.5.8-1 .9zm12.4-1.7c-.3-.9-1.2-.6-1.9-.7-1.1-.3-1.7.3-2 1.3-.3 1.1-.8 2.2-1.2 3.3-.1.3-.5.8 0 1.1.6.2.8-.2 1.1-.7.3-.5.1-1.5.9-1.4.8.1.4 1 .5 1.5.1.4.3.7.7.7.5 0 .6-.3.6-.8 0-.4 0-.8-.1-1.2-.1-.5-.1-.7.3-1 .9-.5 1.4-1.2 1.1-2.1zm-2.4 1.8c-.2 0-.6.1-.5-.3.1-.5.1-1.1.8-1.1.4 0 .7 0 .8.5-.1.5-.5.8-1.1.9zM367.4.7H325v42.5h42.4v-14c.2-.2.3-.6.3-.9 0-.4-.1-.7-.3-.9" fill="#B7B5BA"/><path d="M329.2 19.2l-.8-2-.8 2h1.6zm18-.7c-.2.1-.4.1-.6.1h-1.4v-1.1h1.5c.2 0 .4 0 .6.1.2.1.2.2.2.4-.1.2-.2.4-.3.5zm10.3.7l-.8-2-.8 2h1.6zm-19.3 2.2H337v-3.9l-1.7 3.9h-1l-1.7-3.9v3.9h-2.4l-.5-1.1h-2.5l-.5 1.1h-1.3l2.1-5h1.8l2 4.7v-4.7h1.9l1.6 3.4 1.4-3.4h2v5zm4.9 0h-4v-5h4v1h-2.8v.9h2.7v1h-2.7v1h2.8v1.1zm5.6-3.6c0 .8-.5 1.2-.8 1.3.3.1.5.3.6.4.2.2.2.5.2.9v1h-1.2v-.6c0-.3 0-.7-.2-1-.2-.2-.4-.2-.9-.2h-1.3v1.8h-1.2v-5h2.7c.6 0 1.1 0 1.4.2.5.3.7.6.7 1.2zm1.9 3.6h-1.2v-5h1.2v5zm14.1 0H363l-2.3-3.7v3.7h-2.4l-.5-1.1h-2.5l-.4 1.1h-1.4c-.6 0-1.3-.1-1.7-.6-.4-.4-.6-1-.6-1.9 0-.7.1-1.4.6-1.9.4-.4 1-.6 1.8-.6h1.2v1.1h-1.1c-.4 0-.7.1-.9.3-.2.2-.3.6-.3 1.1 0 .5.1.9.3 1.2.2.2.5.3.8.3h.5l1.7-3.9h1.8l2 4.7v-4.7h1.8l2.1 3.5v-3.5h1.2v4.9zm-39.3 1h2l.5-1.1h1l.5 1.1h4v-.8l.4.8h2.1l.4-.9v.9h9.9v-1.8h.2c.1 0 .2 0 .2.2v1.6h5.1V22c.4.2 1.1.4 1.9.4h2.2l.5-1.1h1l.5 1.1h4.2v-1.1l.6 1.1h3.3v-6.9h-3.3v.8l-.5-.8h-3.4v.8l-.4-.8h-4.6c-.8 0-1.4.1-2 .4v-.4h-3.2v.4c-.3-.3-.8-.4-1.3-.4h-11.6l-.8 1.8-.8-1.8h-3.6v.8l-.4-.8h-3.1l-1.4 3.3-.1 3.6zm42.4 3.6h-2.2c-.2 0-.4 0-.5.1-.1.1-.2.2-.2.4s.1.3.3.4c.1 0 .3.1.5.1h.6c.7 0 1.1.1 1.4.4l.1.1V26zm0 3.3c-.3.4-.9.6-1.6.6h-2.3v-1.1h2.3c.2 0 .4 0 .5-.1.1-.1.1-.2.1-.3 0-.1-.1-.3-.1-.3-.1-.1-.2-.1-.4-.1-1.1 0-2.5 0-2.5-1.5 0-.7.5-1.5 1.7-1.5h2.4v-1h-2.2c-.7 0-1.1.2-1.5.4V24h-3.3c-.5 0-1.1.1-1.4.4V24h-5.8v.4c-.5-.3-1.2-.4-1.6-.4h-3.8v.4c-.4-.4-1.2-.4-1.7-.4h-4.3l-1 1.1-.9-1.1H334v7h6.3l1-1.1 1 1.1h3.9v-1.6h.4c.5 0 1.1 0 1.7-.2v1.9h3.2v-1.8h.2c.2 0 .2 0 .2.2v1.6h9.7c.6 0 1.3-.2 1.6-.4v.4h3.1c.6 0 1.3-.1 1.7-.3l-.2-1.5zm-4.8-2c.2.2.4.5.4 1.1 0 1.1-.7 1.6-1.9 1.6h-2.3v-1.1h2.3c.2 0 .4 0 .5-.1.1-.1.1-.2.1-.3 0-.1-.1-.3-.1-.3-.1-.1-.2-.1-.4-.1-1.1 0-2.5 0-2.5-1.5 0-.7.5-1.5 1.7-1.5h2.4v.9H361c-.2 0-.4 0-.5.1-.1.1-.2.2-.2.4s.1.3.3.4c.1 0 .3.1.5.1h.6c.6 0 1 .1 1.3.3zm-10.7-.3c-.2.1-.4.1-.6.1h-1.4V26h1.5c.2 0 .4 0 .6.1.2.1.2.2.2.4-.1.3-.2.4-.3.5zm.7.6c.3.1.5.3.6.4.2.2.2.5.2.9v1h-1.2v-.6c0-.3 0-.7-.2-1-.2-.2-.4-.2-.9-.2h-1.3V30H349v-5h2.7c.6 0 1 0 1.4.2.4.2.6.5.6 1.1.1.8-.4 1.2-.7 1.3zm1.5-2.6h4v1h-2.8v.9h2.7v1h-2.7v1h2.8v1h-4V25zm-8 2.3H345V26h1.6c.4 0 .7.2.7.6-.1.5-.4.7-.8.7zm-2.8 2.2l-1.8-2 1.8-2v4zm-4.7-.6h-2.9v-1h2.6v-1h-2.6V26h3l1.3 1.5-1.4 1.4zm9.5-2.3c0 1.4-1 1.7-2.1 1.7h-1.5V30h-2.3l-1.5-1.6-1.5 1.6h-4.7v-5h4.8l1.5 1.6 1.5-1.6h3.8c.9 0 2 .2 2 1.6z" fill="#FFF"/><path d="M134.2 21.5l-1 5.2c-.5 2.1-1.7 3.5-4.3 3.5-3 0-3.8-1.9-3.1-4.5.8-3.6 3.8-4.7 8.4-4.2zm4.7-7.5l-3.2.2-1 5.1c-1.2 0-1.6-.1-3-.1-4.5 0-8.4 1.9-9.4 6.3-.9 4 1.3 7.1 6.3 7.1 5.1 0 7.3-2.6 8-6.3l2.3-12.3zm-34.6 7.7c-4.7-.4-8.7 0-8.8 1.5-.1 2.4 7.7.3 7.5 4.7-.2 6.4-11.1 5-13.8 4.1l.5-1.9c4.6.7 9.5.8 9.6-1.8.1-2.7-7.7-.3-7.5-4.7.1-3.3 5-5 13-3.9l-.5 2zm12.6 4.4c-.7 2.7-2.8 4.4-5.3 4.4-2.7 0-3.8-1.5-3.1-4.4.7-2.7 2.8-4.5 5.4-4.5 2.5 0 3.7 1.8 3 4.5m-2.7-6.7c-4.6 0-8.4 2.7-9.3 6.7-.9 4 1.6 6.7 6.2 6.7s8.4-2.7 9.3-6.7c1-4-1.5-6.7-6.2-6.7m53.7 13.3h-4c-2.4-2.3-7.1-7.6-10.6-13.2h3c3.2 4.5 11.6 13.2 11.6 13.2m4.2-26.2l1.9-3.9.5 3.9 3.8-1.3-2.6 3.4 2.9 2.2-3.8.3-.2 4.1-2.1-3-3.1 2.9 1.2-4.1-3.7-.5 3.6-2L169 5l3.1 1.5zm7.9 19.6c-.7 2.7-2.8 4.4-5.4 4.4-2.7 0-3.9-1.6-3.2-4.4.7-2.7 2.9-4.6 5.4-4.6 2.6.1 3.9 1.9 3.2 4.6m-2.7-6.8c-4.7 0-8.5 2.7-9.4 6.8-.9 4.1 1.6 6.8 6.3 6.8 4.7 0 8.5-2.7 9.4-6.8.9-4.1-1.6-6.8-6.3-6.8" fill="#B7B5BA"/><path d="M150.2 31.6c7.6-4.2 14.3-10.7 19-16.4-3.4 10.6-11.5 16.3-19 16.4m-3-10.3c1.5 0 2.3.5 2.3 1.5 0 2.7-5.2 2.5-7.6 2 .8-1.9 2.7-3.5 5.3-3.5m5.4 1.4c0-1.9-1.6-3.4-5.1-3.4-5.7 0-9.4 3.7-9.4 8.3 0 3 2.5 5.4 7 5.4 3.1 0 5.2-1.5 5.2-1.5-3.9.4-8.8 0-8.8-4.2v-.5c5.3 1.2 11.1-.2 11.1-4.1" fill="#B7B5BA"/><g transform="translate(386 3)"><circle fill="#AEAEAF" cx="18.4" cy="19.1" r="18.2"/><path d="M41.9.8c-4.7 0-9 1.8-12.2 4.7-.7.6-1.3 1.2-1.8 1.9h3.7c.5.6 1 1.3 1.4 1.9h-6.5c-.4.6-.7 1.3-1.1 1.9H34c.3.6.5 1.3.8 1.9H24.7c-.2.6-.4 1.3-.5 1.9h11.2c.3 1.2.4 2.5.4 3.9 0 2-.3 4-.9 5.8H24.8c.2.7.5 1.3.8 1.9h8.6c-.3.7-.7 1.3-1.1 1.9h-6.5c.4.7.9 1.3 1.4 1.9h3.7c-.6.7-1.2 1.3-1.8 1.9 3.2 2.9 7.5 4.7 12.2 4.7 10.1 0 18.2-8.2 18.2-18.2S52 .8 41.9.8z" fill="#B7B5BA"/><g fill="#FFF"><path d="M6 19.3l1.9-5.7H11l-1.6 9.3H7.5l1.1-7.1-2.5 7.1H4.7l-.1-7.1-1.2 7.1H1.5l1.6-9.3h2.8l.1 5.7zm8.3.2h-.4c-1.1 0-1.7.4-1.7 1.1 0 .5.3.8.7.8.8 0 1.4-.8 1.4-1.9zm1.5 3.4h-1.6v-.8c-.5.6-1.2.9-2.1.9-1.1 0-1.8-.8-1.8-2.1 0-1.8 1.3-2.9 3.5-2.9.2 0 .5 0 .8.1.1-.2.1-.4.1-.5 0-.5-.3-.7-1.3-.7s-1.8.2-2.1.3c0-.1.3-1.7.3-1.7 1-.3 1.6-.4 2.4-.4 1.7 0 2.6.8 2.6 2.2 0 .4-.1.9-.2 1.5-.2 1.2-.6 3.5-.6 4.1zm26.5-9l-.3 2c-.7-.4-1.2-.5-1.8-.5-1.5 0-2.5 1.4-2.5 3.5 0 1.4.7 2.3 1.8 2.3.5 0 1-.2 1.7-.5l-.3 2.1c-.7.2-1.2.3-1.7.3-2.1 0-3.5-1.5-3.5-4 0-3.3 1.8-5.6 4.5-5.6.8-.1 1.8.2 2.1.4zm3.2 5.6h-.4c-1.1 0-1.7.4-1.7 1.1 0 .5.3.8.7.8.8 0 1.4-.8 1.4-1.9zm1.4 3.4h-1.6v-.8c-.5.6-1.2.9-2.1.9-1.1 0-1.8-.8-1.8-2.1 0-1.8 1.3-2.9 3.5-2.9.2 0 .5 0 .8.1.1-.2.1-.4.1-.5 0-.5-.3-.7-1.3-.7s-1.8.2-2.1.3c0-.1.3-1.7.3-1.7 1-.3 1.6-.4 2.4-.4 1.7 0 2.6.8 2.6 2.2 0 .4-.1.9-.2 1.5-.1 1.2-.5 3.5-.6 4.1zm-22.3-.2c-.5.2-1 .2-1.4.2-1 0-1.6-.6-1.6-1.7 0-.3.1-1.2.3-2 .1-.7.9-5.1.9-5.1h2l-.2 1.1h1l-.3 1.8h-1c-.2 1.4-.6 3.2-.6 3.4 0 .4.2.6.7.6.2 0 .4 0 .5-.1l-.3 1.8z"/><path d="M30.6 22.7c-.7.2-1.3.3-2 .3-2.2 0-3.4-1.2-3.4-3.4 0-2.6 1.5-4.5 3.4-4.5 1.6 0 2.7 1.1 2.7 2.7 0 .6-.1 1.1-.2 1.8h-3.9c-.1 1.1.6 1.5 1.7 1.5.7 0 1.3-.1 2-.5l-.3 2.1zm-1.1-4.5c0-.2.2-1.3-.9-1.3-.6 0-1.1.5-1.3 1.3h2.2zm-12.6-.5c0 1 .5 1.6 1.5 2.1.8.4.9.5.9.8 0 .5-.4.7-1.1.7-.6 0-1.1-.1-1.8-.3l-.3 1.7c.5.1.9.2 2.1.2 2.1 0 3.1-.8 3.1-2.5 0-1-.4-1.6-1.4-2.1-.8-.4-.9-.5-.9-.8 0-.4.3-.6 1-.6.4 0 .9 0 1.4.1l.3-1.7c-.5-.1-1.3-.1-1.7-.1-2.3 0-3.1 1.1-3.1 2.5zm40.5 5.2h-1.9l.1-.7c-.5.6-1.1.8-1.8.8-1.4 0-2.4-1.2-2.4-3.1 0-2.5 1.5-4.6 3.2-4.6.8 0 1.3.3 1.9 1l.4-2.7h2l-1.5 9.3zm-2.9-1.8c.9 0 1.6-1 1.6-2.5 0-1-.4-1.5-1.1-1.5-.9 0-1.5 1-1.5 2.5 0 1 .3 1.5 1 1.5zm-5.8-5.8c-.2 2.3-.7 4.7-1 7l-.1.5h2c.7-4.6.9-5.5 2-5.4.2-.9.5-1.8.8-2.2-.8-.2-1.3.3-1.9 1.2 0-.4.1-.8.1-1.1h-1.9zm-16.3 0c-.2 2.3-.7 4.7-1 7l-.1.5h2c.7-4.6.9-5.5 2-5.4.2-.9.5-1.8.8-2.2-.8-.2-1.3.3-1.9 1.2 0-.4.1-.8.1-1.1h-1.9z"/></g></g></g></svg>
